<svg width="18" height="18" viewBox="0 0 18 18" fill="none" xmlns="http://www.w3.org/2000/svg">
<path d="M2.59492 2.59529C3.64618 1.54459 4.90559 1.01625 6.43176 1.00037C4.94803 1.01642 3.65376 1.55702 2.60489 2.60589C1.55698 3.6538 1.01662 4.94647 1.00038 6.42814C1.01642 4.90298 1.5447 3.64496 2.59492 2.59529ZM10.3941 2.60489C9.3462 1.55698 8.05353 1.01662 6.57186 1.00038C8.09702 1.01642 9.35504 1.5447 10.4047 2.59492C11.4554 3.64616 11.9837 4.90553 11.9996 6.43166C11.9836 4.94797 11.443 3.65374 10.3941 2.60489ZM6.42787 11.9996C4.90283 11.9835 3.6449 11.4552 2.59529 10.4051C1.54459 9.35382 1.01625 8.09441 1.00037 6.56824C1.01642 8.05197 1.55702 9.34624 2.60589 10.3951C3.65374 11.443 4.94631 11.9833 6.42787 11.9996Z" fill="black" stroke="black" stroke-width="2"/>
</svg>
