<svg width="26" height="26" viewBox="0 0 26 26" fill="none" xmlns="http://www.w3.org/2000/svg">
<path d="M0.910156 22C0.910156 20.4087 1.5423 18.8826 2.66752 17.7574C3.79273 16.6321 5.31886 16 6.91016 16H18.9102C20.5015 16 22.0276 16.6321 23.1528 17.7574C24.278 18.8826 24.9102 20.4087 24.9102 22C24.9102 22.7956 24.5941 23.5587 24.0315 24.1213C23.4689 24.6839 22.7058 25 21.9102 25H3.91016C3.11451 25 2.35144 24.6839 1.78884 24.1213C1.22623 23.5587 0.910156 22.7956 0.910156 22Z" stroke="black" stroke-width="1.5" stroke-linejoin="round"/>
<path d="M12.9102 10C15.3954 10 17.4102 7.98528 17.4102 5.5C17.4102 3.01472 15.3954 1 12.9102 1C10.4249 1 8.41016 3.01472 8.41016 5.5C8.41016 7.98528 10.4249 10 12.9102 10Z" stroke="black" stroke-width="1.5"/>
</svg>
