<svg width="22" height="24" viewBox="0 0 22 24" fill="none" xmlns="http://www.w3.org/2000/svg">
<path d="M2.74286 24C1.98857 24 1.34263 23.7312 0.805031 23.1936C0.267431 22.656 -0.000911957 22.0105 2.3284e-06 21.2571V8.91428C2.3284e-06 8.48 0.0973735 8.06857 0.292116 7.68C0.486859 7.29143 0.755202 6.97143 1.09715 6.72L9.32572 0.548571C9.57714 0.365714 9.84 0.228571 10.1143 0.137143C10.3886 0.0457141 10.6743 0 10.9714 0C11.2686 0 11.5543 0.0457141 11.8286 0.137143C12.1029 0.228571 12.3657 0.365714 12.6171 0.548571L20.8457 6.72C21.1886 6.97143 21.4574 7.29143 21.6521 7.68C21.8469 8.06857 21.9438 8.48 21.9429 8.91428V21.2571C21.9429 22.0114 21.6741 22.6574 21.1365 23.195C20.5989 23.7326 19.9534 24.0009 19.2 24H13.7143V14.4H8.22857V24H2.74286Z" fill="#70BDA1"/>
</svg>
